# xmcd
#
# Track frame offsets:
#	150
#	9042
#	18505
#	30465
#	40972
#	51835
#	63452
#	73167
#	83040
#	91975
#	102082
#	114327
#	124062
#	135885
#	147925
#
# Disc length: 2125 seconds
#
# Revision: 0
# Processed by: cddbd v1.4PL0 Copyright (c) Steve Scherf et al.
# Submitted via: dBpowerAMP V4.0
#
DISCID=ba084b0f
DTITLE=Wanda Jackson - Country Classics
DYEAR=1900
DGENRE=Country
TTITLE0=Jambalaya (on the bayou)
TTITLE1=Let's have a party
TTITLE2=Hot dog that made him mad
TTITLE3=Fancy satin pillows
TTITLE4=Because it's you
TTITLE5=I may never get to heaven
TTITLE6=Seven lonely days
TTITLE7=Mean mean man
TTITLE8=Long tall Sally
TTITLE9=Fujiyama Mama
TTITLE10=Whole lotta' shakin' going on
TTITLE11=Yakety Yak
TTITLE12=Right or wrong
TTITLE13=Stand by your man
TTITLE14=In the middle of a heartache
EXTD=
EXTT0=
EXTT1=
EXTT2=
EXTT3=
EXTT4=
EXTT5=
EXTT6=
EXTT7=
EXTT8=
EXTT9=
EXTT10=
EXTT11=
EXTT12=
EXTT13=
EXTT14=
PLAYORDER=
